<?xml version="1.0" encoding="UTF-8"?>
<svg xmlns="http://www.w3.org/2000/svg" viewBox="0 0 444.85 151.75">
  <defs>
    <style>
      .cls-1 {
        fill: #30c9cd;
      }

      .cls-2 {
        isolation: isolate;
      }

      .cls-3 {
        font-size: 71px;
      }

      .cls-4 {
        font-size: 74px;
      }

      .cls-5 {
        fill: #93c78d;
      }

      .cls-6 {
        fill: none;
        stroke: #000;
        stroke-miterlimit: 10;
      }

      .cls-7 {
        font-family: Montserrat-Regular, Montserrat;
        font-variation-settings: 'wght' 400;
      }

      .cls-8 {
        fill: #22679c;
      }
    </style>
  </defs>
  <g id="Ellipse_1_copy" data-name="Ellipse 1 copy" class="cls-2">
    <g id="Ellipse_1_copy-2" data-name="Ellipse 1 copy">
      <circle class="cls-1" cx="14.03" cy="59.67" r="5.67" transform="translate(-46.47 49.79) rotate(-67.5)"/>
    </g>
  </g>
  <g id="Ellipse_1_copy_6" data-name="Ellipse 1 copy 6" class="cls-2">
    <g id="Ellipse_1_copy_6-2" data-name="Ellipse 1 copy 6">
      <circle class="cls-1" cx="29.44" cy="53.91" r="5.67" transform="translate(-31.63 60.48) rotate(-67.5)"/>
    </g>
  </g>
  <g id="Ellipse_1_copy_2" data-name="Ellipse 1 copy 2" class="cls-2">
    <g id="Ellipse_1_copy_2-2" data-name="Ellipse 1 copy 2">
      <circle class="cls-8" cx="29.44" cy="59.67" r="5.67" transform="translate(-36.95 64.04) rotate(-67.5)"/>
    </g>
  </g>
  <g id="Ellipse_1_copy_7" data-name="Ellipse 1 copy 7" class="cls-2">
    <g id="Ellipse_1_copy_7-2" data-name="Ellipse 1 copy 7">
      <circle class="cls-5" cx="35.11" cy="60.87" r="5.67"/>
    </g>
  </g>
  <g id="Ellipse_1_copy_5" data-name="Ellipse 1 copy 5" class="cls-2">
    <g id="Ellipse_1_copy_5-2" data-name="Ellipse 1 copy 5">
      <circle class="cls-8" cx="20.5" cy="53.25" r="5.67"/>
    </g>
  </g>
  <g id="Ellipse_1_copy_4" data-name="Ellipse 1 copy 4" class="cls-2">
    <g id="Ellipse_1_copy_4-2" data-name="Ellipse 1 copy 4">
      <circle class="cls-5" cx="21.81" cy="61.16" r="5.67"/>
    </g>
  </g>
  <g id="Layer_1_Image" data-name="Layer 1 Image">
    <path d="M0,61.08c.62-1.67,2.49-.81,3.09-1.58L21.8,18.44h-4.19c-1.56,0-1.91-2.31-1.15-3.53.12-.19.85-.79.91-.79h48.5c.06-.43,0-.52-.25-.83-.52-.61-1.72-1.06-2.38-1.93-4.02-5.22,1.34-12.78,7.9-10.53,5.96,2.04,6.02,9.8.72,12.69l.36.6h47.67c1.37,0,2.21,2.92.97,3.84-1.01.75-7.66.5-9.36.48-10.78-.14-21.57-.13-32.35-.05-1.13,0-6.6-.59-7.01.08l3.08,102.24h-36.65c-2.91-1.07-2.02-3.69-1-5.91,1.75-3.8,5.5-7.1,9.39-8.57,5.16-1.96,10.67-.67,16.06-1.19l.19-.29,2.43-86.55H28.14c-.22,0-.63.3-1.08,0l.11.96,18.96,41.16c2.72-.2,2.73,1.07,1.95,3.21-1.68,4.62-5.44,8.5-9.55,11.05-13.75,8.53-33.18,3.11-38.55-12.56v-.96ZM24.64,23.26h-.67S7.43,60.12,7.43,60.12h33.77S24.64,23.26,24.64,23.26Z"/>
    <line class="cls-6" x1="80.6" y1="17.89" x2="71.14" y2="17.89"/>
  </g>
  <g id="Layer_3_Image" data-name="Layer 3 Image">
    <path d="M74.46,120.72s-.27-.23-.58-.24c-1.55-.06-3.13.07-4.68,0l-.48-3.91h50.84c1.32,0,2.15,2.63,1.09,3.59-.39.36-.86.24-1.21.56h-41.39c-1.19-.03-2.4.04-3.59,0Z"/>
  </g>
  <g id="Layer_3_copy_Image" data-name="Layer 3 copy Image">
    <path d="M70.32,71.04l2.5-3.88.71-.24h37.01c2.35.02,2.97,3.67.48,3.89l-37.74-.02-.81.24h-2.15Z"/>
  </g>
  <g id="Layer_4_Image" data-name="Layer 4 Image">
    <path d="M71.43,15.16c3.67-.83,2.77,4.74,2.86,6.79,1.25,30.96,1.94,61.95,2.82,92.86.05,1.66-.17,3.86-2.25,3.95-3.23.14-2.34-4.55-2.42-6.58-1.28-30.33-1.98-60.86-2.57-91.21-.03-1.75-1.07-5.21,1.56-5.81Z"/>
  </g>
  <g id="quiBoots">
    <text class="cls-7" transform="translate(121.6 118.23)"><tspan class="cls-3" x="0" y="0">qui</tspan><tspan class="cls-4" x="114.95" y="0">B</tspan><tspan class="cls-3" x="170.74" y="0">oots</tspan></text>
  </g>
  <g id="Layer_14" data-name="Layer 14">
    <circle class="cls-1" cx="227.41" cy="68.76" r="5.71"/>
  </g>
</svg>